# xmcd CD database file
#
# Track frame offsets:
#	150
#	6185
#	18886
#	56317
#	78483
#	87769
#	93881
#	98868
#	108889
#	144461
#	159888
#	197991
#
# Disc length: 3037 seconds
#
# Revision: 0
# Processed by: cddbd v1.5.2PL0 Copyright (c) Steve Scherf et al.
# Submitted via: CDex 1.70beta2
#
DISCID=820bdb0c
DTITLE=Ohne 4 gespielt Drei - Debut
DYEAR=2005
DGENRE=Jazz
TTITLE0=Pankreas Punk
TTITLE1=Fassanstich
TTITLE2=Zick-Zack
TTITLE3=Old School
TTITLE4=Aus der Tiefe des Raumes - Part 1: Nordkurve
TTITLE5=Aus der Tiefe des Raumes - Part 2: Heimspiel
TTITLE6=Aus der Tiefe des Raumes - Part 3: Knappenkarte
TTITLE7=Aus der Tiefe des Raumes - Part 4: Dritte Halbzeit
TTITLE8=Red Nosed Puppet
TTITLE9=Williamsburger
TTITLE10=Wellness in der Uckermark
TTITLE11=Brisko and Titus
EXTD=YEAR: 2005
EXTT0=
EXTT1=
EXTT2=
EXTT3=
EXTT4=
EXTT5=
EXTT6=
EXTT7=
EXTT8=
EXTT9=
EXTT10=
EXTT11=
PLAYORDER=
